<svg width="472" height="181" viewBox="0 0 472 181" fill="none" xmlns="http://www.w3.org/2000/svg">
<rect width="472" height="181" fill="white"/>
<path d="M18.124 34.5771C18.124 32.0381 18.8564 30.2314 20.3213 29.1572C21.7861 28.083 24.2031 27.5459 27.5723 27.5459C28.7441 27.5459 29.7695 27.668 30.6484 27.9121C31.5273 28.1562 32.2598 28.5713 32.8457 29.1572C33.4316 29.6943 33.8955 30.4512 34.2373 31.4277C34.6279 32.3555 34.9453 33.5518 35.1895 35.0166C35.8242 39.3623 36.459 43.9277 37.0938 48.7129C37.7773 53.4492 38.4121 58.1855 38.998 62.9219C39.6328 67.6094 40.2188 72.1992 40.7559 76.6914C41.293 81.1348 41.7568 85.2852 42.1475 89.1426C42.5869 92.9512 42.9043 96.3447 43.0996 99.3232C43.3438 102.253 43.4658 104.572 43.4658 106.281C43.4658 108.039 43.2949 109.528 42.9531 110.749C42.6602 111.97 42.123 112.946 41.3418 113.679C40.6094 114.411 39.6328 114.948 38.4121 115.29C37.2402 115.583 35.7754 115.729 34.0176 115.729C32.3086 115.729 30.9414 115.29 29.916 114.411C28.9395 113.532 28.4512 112.189 28.4512 110.383C28.4512 108.527 28.3047 106.062 28.0117 102.985C27.7188 99.8604 27.3281 96.3936 26.8398 92.585C26.3516 88.7764 25.79 84.7236 25.1553 80.4268C24.5693 76.1299 23.9346 71.8818 23.251 67.6826C22.6162 63.4834 21.9814 59.4551 21.3467 55.5977C20.7607 51.6914 20.2236 48.249 19.7354 45.2705C19.2471 42.2432 18.8564 39.7773 18.5635 37.873C18.2705 35.9199 18.124 34.8213 18.124 34.5771ZM63.6367 93.6836C63.6367 92.8535 63.7344 91.9258 63.9297 90.9004C64.125 89.875 64.2227 88.752 64.2227 87.5312C64.2227 86.7012 63.8564 86.0664 63.124 85.627C62.4404 85.1875 61.6592 84.6992 60.7803 84.1621C59.9014 83.625 59.0957 82.9414 58.3633 82.1113C57.6797 81.2812 57.3379 80.085 57.3379 78.5225C57.3379 77.3994 57.6309 76.2764 58.2168 75.1533C58.8516 74.0303 59.7549 73.0049 60.9268 72.0771C63.8076 69.9287 66.7861 68 69.8623 66.291C72.9873 64.582 76.0879 63.1416 79.1641 61.9697C82.2891 60.7979 85.3652 59.8945 88.3926 59.2598C91.4199 58.625 94.3252 58.3076 97.1084 58.3076C101.796 58.3076 106.19 59.1865 110.292 60.9443C114.442 62.6533 118.031 65.0215 121.059 68.0488C124.135 71.0273 126.552 74.543 128.31 78.5957C130.116 82.5996 131.02 86.8965 131.02 91.4863C131.02 95.9785 130.067 100.251 128.163 104.304C126.308 108.308 123.793 111.823 120.619 114.851C117.445 117.878 113.71 120.271 109.413 122.028C105.165 123.835 100.673 124.738 95.9365 124.738C91.2979 124.738 87.001 123.957 83.0459 122.395C79.0908 120.832 75.6729 118.684 72.792 115.949C69.9111 113.166 67.665 109.895 66.0537 106.135C64.4424 102.326 63.6367 98.1758 63.6367 93.6836ZM97.5479 111.555C99.5986 111.555 101.723 111.14 103.92 110.31C106.117 109.479 108.119 108.283 109.926 106.721C111.781 105.109 113.295 103.156 114.467 100.861C115.688 98.5664 116.298 95.9785 116.298 93.0977C116.298 90.168 115.761 87.4336 114.687 84.8945C113.612 82.3555 112.123 80.1582 110.219 78.3027C108.363 76.3984 106.142 74.9092 103.554 73.835C101.015 72.7607 98.2559 72.2236 95.2773 72.2236C89.8574 72.2236 85.707 73.6396 82.8262 76.4717C79.9453 79.2549 78.5049 83.5518 78.5049 89.3623C78.5049 92.5361 78.9688 95.4902 79.8965 98.2246C80.873 100.91 82.2158 103.254 83.9248 105.256C85.6338 107.209 87.6357 108.747 89.9307 109.87C92.2744 110.993 94.8135 111.555 97.5479 111.555ZM197.113 64.46C197.309 64.5576 197.602 64.6064 197.992 64.6064C199.066 64.6064 199.604 63.8984 199.604 62.4824V39.7041C199.604 36.8232 200.238 34.7725 201.508 33.5518C202.826 32.3311 204.999 31.7207 208.026 31.7207C211.103 31.7207 213.275 32.3555 214.545 33.625C215.814 34.8945 216.449 37.0674 216.449 40.1436C216.449 41.3154 216.376 43.0488 216.229 45.3438C216.083 47.5898 215.912 50.1533 215.717 53.0342C215.57 55.915 215.424 59.0156 215.277 62.3359C215.131 65.6074 215.058 68.8545 215.058 72.0771C215.058 77.0576 215.399 81.3545 216.083 84.9678C216.767 88.5811 217.743 91.584 219.013 93.9766C220.282 96.3203 221.796 98.0781 223.554 99.25C225.312 100.373 227.289 100.935 229.486 100.935C230.707 100.935 231.806 100.788 232.782 100.495C233.808 100.153 235.004 99.9824 236.371 99.9824C237.348 99.9824 238.153 100.495 238.788 101.521C239.472 102.497 239.813 103.693 239.813 105.109C239.813 106.379 239.423 107.575 238.642 108.698C237.909 109.821 236.884 110.798 235.565 111.628C234.296 112.458 232.807 113.117 231.098 113.605C229.389 114.045 227.606 114.265 225.751 114.265C221.747 114.265 218.085 113.044 214.765 110.603C211.444 108.112 208.954 104.328 207.294 99.25C207.147 98.4688 206.903 98.0781 206.562 98.0781C206.171 98.0781 205.854 98.4688 205.609 99.25C204.291 102.814 202.558 106.037 200.409 108.918C198.31 111.75 195.844 114.191 193.012 116.242C190.229 118.244 187.152 119.782 183.783 120.856C180.463 121.931 176.947 122.468 173.236 122.468C169.33 122.468 165.741 121.809 162.47 120.49C159.247 119.221 156.464 117.438 154.12 115.144C151.776 112.8 149.945 110.065 148.627 106.94C147.309 103.767 146.649 100.349 146.649 96.6865C146.649 91.999 147.626 87.5801 149.579 83.4297C151.532 79.2793 154.169 75.666 157.489 72.5898C160.858 69.4648 164.765 66.999 169.208 65.1924C173.651 63.3857 178.388 62.4824 183.417 62.4824C185.468 62.4824 187.641 62.6533 189.936 62.9951C192.23 63.2881 194.623 63.7764 197.113 64.46ZM176.093 109.284C178.876 109.284 181.342 108.674 183.49 107.453C185.688 106.232 187.616 104.694 189.276 102.839C190.985 100.935 192.426 98.8594 193.598 96.6133C194.77 94.3184 195.722 92.0967 196.454 89.9482C197.187 87.7998 197.724 85.8711 198.065 84.1621C198.407 82.4531 198.578 81.2324 198.578 80.5C198.578 79.9629 198.432 79.499 198.139 79.1084C197.846 78.6689 197.406 78.3271 196.82 78.083C195.502 77.7412 194.135 77.4482 192.719 77.2041C191.303 76.9111 189.911 76.667 188.544 76.4717C187.177 76.2764 185.858 76.1299 184.589 76.0322C183.368 75.9346 182.245 75.8857 181.22 75.8857C178.29 75.8857 175.629 76.3252 173.236 77.2041C170.844 78.083 168.793 79.3281 167.084 80.9395C165.424 82.5508 164.13 84.4795 163.202 86.7256C162.274 88.9229 161.811 91.3398 161.811 93.9766C161.811 96.3203 162.152 98.4443 162.836 100.349C163.568 102.204 164.545 103.791 165.766 105.109C167.035 106.428 168.549 107.453 170.307 108.186C172.064 108.918 173.993 109.284 176.093 109.284ZM283.202 63.2148C281.396 63.2148 279.809 63.7031 278.441 64.6797C277.074 65.6074 275.902 66.9258 274.926 68.6348C273.949 70.2949 273.144 72.2725 272.509 74.5674C271.874 76.8135 271.361 79.2793 270.971 81.9648C270.58 84.6504 270.312 87.458 270.165 90.3877C270.019 93.3174 269.945 96.2715 269.945 99.25C269.945 103.156 270.092 107.014 270.385 110.822C270.727 114.582 270.897 118.073 270.897 121.296C270.897 123.396 270.116 125.031 268.554 126.203C266.991 127.424 264.77 128.034 261.889 128.034C261.352 128.034 260.741 127.985 260.058 127.888C259.374 127.79 258.715 127.595 258.08 127.302C257.494 127.009 256.957 126.594 256.469 126.057C256.029 125.568 255.785 124.885 255.736 124.006C255.297 119.709 254.662 115.314 253.832 110.822C253.002 106.33 251.952 101.862 250.683 97.4189C249.462 92.9268 247.973 88.4834 246.215 84.0889C244.506 79.6943 242.528 75.3975 240.282 71.1982C239.892 70.4658 239.55 69.7822 239.257 69.1475C239.013 68.5127 238.891 67.9023 238.891 67.3164C238.891 66.584 239.208 65.8027 239.843 64.9727C240.526 64.0938 241.356 63.2881 242.333 62.5557C243.358 61.8232 244.457 61.2373 245.629 60.7979C246.85 60.3096 248.021 60.0654 249.145 60.0654C251 60.0654 252.636 61.3594 254.052 63.9473C255.468 66.4863 256.786 70.5635 258.007 76.1787C258.251 77.1553 258.446 77.8389 258.593 78.2295C258.739 78.6201 258.935 78.8154 259.179 78.8154C259.716 78.8154 260.058 77.9854 260.204 76.3252C260.79 71.6865 261.791 67.707 263.207 64.3867C264.623 61.0176 266.381 58.2588 268.48 56.1104C270.629 53.9131 273.07 52.3018 275.805 51.2764C278.588 50.251 281.64 49.7383 284.96 49.7383C286.864 49.7383 288.793 49.9092 290.746 50.251C292.699 50.5928 294.457 51.1055 296.02 51.7891C297.582 52.4727 298.852 53.3027 299.828 54.2793C300.805 55.2559 301.293 56.3545 301.293 57.5752C301.293 58.4541 301.098 59.5039 300.707 60.7246C300.365 61.8965 299.901 63.0439 299.315 64.167C298.729 65.2412 298.046 66.1689 297.265 66.9502C296.532 67.6826 295.775 68.0488 294.994 68.0488C294.115 68.0488 293.261 67.8047 292.431 67.3164C291.601 66.7793 290.697 66.2178 289.721 65.6318C288.793 65.0459 287.792 64.5088 286.718 64.0205C285.692 63.4834 284.521 63.2148 283.202 63.2148ZM366.508 101.96C367.924 100.739 369.315 100.129 370.683 100.129C371.464 100.129 372.172 100.324 372.807 100.715C373.441 101.105 374.149 101.716 374.931 102.546C375.663 103.669 376.176 104.597 376.469 105.329C376.811 106.013 376.981 106.696 376.981 107.38C376.981 108.845 376.249 110.236 374.784 111.555C372.44 113.508 369.901 115.266 367.167 116.828C364.433 118.342 361.576 119.636 358.598 120.71C355.619 121.784 352.543 122.59 349.369 123.127C346.195 123.713 343.046 124.006 339.921 124.006C335.966 124.006 332.255 123.493 328.788 122.468C325.321 121.491 322.221 120.075 319.486 118.22C316.801 116.364 314.53 114.143 312.675 111.555C310.819 108.918 309.501 105.964 308.72 102.692C308.28 101.325 307.865 100.446 307.475 100.056C307.133 99.6162 306.547 99.3965 305.717 99.3965C303.91 99.3965 302.519 98.957 301.542 98.0781C300.565 97.1992 300.077 95.9297 300.077 94.2695C300.077 93.5859 300.126 93.1465 300.224 92.9512L300.37 91.4863C300.614 89.7285 301.078 88.459 301.762 87.6777C302.494 86.8965 303.617 86.5059 305.131 86.5059H306.229C308.28 86.5059 309.721 85.5537 310.551 83.6494C312.064 80.2803 313.993 77.2041 316.337 74.4209C318.681 71.6377 321.317 69.2695 324.247 67.3164C327.177 65.3145 330.302 63.7764 333.622 62.7021C336.991 61.5791 340.409 61.0176 343.876 61.0176C347.489 61.0176 350.858 61.5547 353.983 62.6289C357.157 63.6543 359.916 65.0947 362.26 66.9502C364.604 68.8057 366.435 70.9785 367.753 73.4688C369.12 75.959 369.804 78.6445 369.804 81.5254C369.804 83.5273 369.413 85.3584 368.632 87.0186C367.851 88.6787 366.728 90.1436 365.263 91.4131C363.798 92.6338 362.016 93.6348 359.916 94.416C357.865 95.1973 355.521 95.71 352.885 95.9541L327.47 98.5176C326.493 98.5176 325.688 98.7617 325.053 99.25C324.467 99.7383 324.174 100.397 324.174 101.228C324.174 102.497 324.638 103.718 325.565 104.89C326.542 106.062 327.812 107.111 329.374 108.039C330.985 108.918 332.816 109.626 334.867 110.163C336.967 110.7 339.115 110.969 341.312 110.969C343.412 110.969 345.561 110.773 347.758 110.383C350.004 109.943 352.201 109.333 354.35 108.552C356.547 107.771 358.671 106.843 360.722 105.769C362.772 104.646 364.701 103.376 366.508 101.96ZM350.175 83.0635C350.907 82.917 351.542 82.5752 352.079 82.0381C352.616 81.4521 352.885 80.7441 352.885 79.9141C352.885 79.1816 352.616 78.498 352.079 77.8633C351.542 77.2285 350.81 76.667 349.882 76.1787C348.954 75.6416 347.88 75.2266 346.659 74.9336C345.438 74.6406 344.145 74.4941 342.777 74.4941C340.775 74.4941 338.725 74.7871 336.625 75.373C334.525 75.959 332.621 76.7402 330.912 77.7168C329.203 78.6445 327.812 79.6943 326.737 80.8662C325.663 81.9893 325.126 83.1123 325.126 84.2354C325.126 85.3584 325.81 85.9199 327.177 85.9199C328.007 85.9199 329.35 85.8223 331.205 85.627C333.061 85.4316 335.111 85.2119 337.357 84.9678C339.604 84.6748 341.874 84.3574 344.169 84.0156C346.464 83.6738 348.466 83.3564 350.175 83.0635ZM419.711 119.978C416.781 119.978 413.852 119.27 410.922 117.854C407.992 116.389 405.185 114.411 402.499 111.921C399.813 109.431 397.323 106.501 395.028 103.132C392.733 99.7139 390.731 96.0518 389.022 92.1455C387.313 88.1904 385.971 84.0645 384.994 79.7676C384.018 75.4707 383.529 71.1738 383.529 66.877C383.529 63.5566 384.213 61.1885 385.58 59.7725C386.947 58.3076 389.169 57.5752 392.245 57.5752C396.103 57.5752 398.251 59.1621 398.69 62.3359C399.569 69.0742 400.79 75.1533 402.353 80.5732C403.915 85.9932 405.746 90.6074 407.846 94.416C409.994 98.2246 412.362 101.154 414.95 103.205C417.587 105.256 420.37 106.281 423.3 106.281C425.399 106.281 427.377 105.769 429.232 104.743C431.088 103.669 432.699 102.18 434.066 100.275C434.555 99.543 434.872 98.835 435.019 98.1514C435.214 97.4678 435.36 96.6865 435.458 95.8076C435.702 92.3408 435.971 88.9473 436.264 85.627C436.605 82.2578 436.923 78.8887 437.216 75.5195C437.313 74.0547 437.509 72.8584 437.802 71.9307C438.095 71.0029 438.534 70.2705 439.12 69.7334C439.706 69.1963 440.463 68.8301 441.391 68.6348C442.367 68.4395 443.588 68.3418 445.053 68.3418C446.713 68.3418 448.129 68.5859 449.301 69.0742C450.473 69.5137 451.425 70.2705 452.157 71.3447C452.89 72.3701 453.402 73.7373 453.695 75.4463C454.037 77.1064 454.208 79.1816 454.208 81.6719C454.208 83.8203 454.037 85.7002 453.695 87.3115C453.402 88.874 453.036 90.3633 452.597 91.7793C452.206 93.1465 451.815 94.5137 451.425 95.8809C451.083 97.1992 450.863 98.6641 450.766 100.275C450.521 104.328 450.302 107.844 450.106 110.822C449.911 113.752 449.74 116.267 449.594 118.366C449.496 120.466 449.398 122.272 449.301 123.786C449.252 125.3 449.203 126.643 449.154 127.814C449.105 129.035 449.081 130.183 449.081 131.257C449.081 132.331 449.081 133.503 449.081 134.772C449.081 137.067 449.179 139.558 449.374 142.243C449.569 144.978 449.765 147.59 449.96 150.08C450.204 152.57 450.424 154.768 450.619 156.672C450.814 158.576 450.912 159.895 450.912 160.627C450.912 161.555 450.619 162.434 450.033 163.264C449.447 164.094 448.666 164.826 447.689 165.461C446.713 166.096 445.565 166.584 444.247 166.926C442.929 167.316 441.537 167.512 440.072 167.512C438.803 167.512 437.777 167.072 436.996 166.193C436.264 165.363 435.849 164.24 435.751 162.824C435.604 160.969 435.482 158.698 435.385 156.013C435.287 153.376 435.189 150.544 435.092 147.517C434.994 144.538 434.921 141.486 434.872 138.361C434.872 135.285 434.848 132.404 434.799 129.719C434.75 127.082 434.726 124.763 434.726 122.761C434.726 120.759 434.726 119.318 434.726 118.439C434.726 117.561 434.628 116.95 434.433 116.608C434.237 116.218 433.871 116.022 433.334 116.022C433.041 116.022 432.65 116.12 432.162 116.315C431.674 116.462 431.112 116.73 430.478 117.121C428.769 118.146 427.035 118.879 425.277 119.318C423.52 119.758 421.664 119.978 419.711 119.978Z" fill="#333333"/>
</svg>
